<svg width="14" height="14" viewBox="0 0 14 14" fill="none" xmlns="http://www.w3.org/2000/svg">
<g clip-path="url(#clip0)">
<path d="M10.373 0H4.22797C2.22801 0 0.600983 1.62703 0.600983 3.62698V9.77211C0.600983 11.772 2.22801 13.399 4.22797 13.399H10.3731C12.3729 13.399 14 11.772 14 9.77211V3.62698C14 1.62703 12.3729 0 10.373 0V0ZM7.30048 10.3632C5.28028 10.3632 3.63679 8.71969 3.63679 6.69949C3.63679 4.6793 5.28028 3.03581 7.30048 3.03581C9.32067 3.03581 10.9642 4.6793 10.9642 6.69949C10.9642 8.71969 9.32067 10.3632 7.30048 10.3632ZM11.0518 3.89983C10.4548 3.89983 9.96919 3.41425 9.96919 2.81725C9.96919 2.22025 10.4548 1.73457 11.0518 1.73457C11.6488 1.73457 12.1344 2.22025 12.1344 2.81725C12.1344 3.41425 11.6488 3.89983 11.0518 3.89983Z" fill="white"/>
<path d="M7.30048 3.82132C5.71352 3.82132 4.4223 5.11244 4.4223 6.6995C4.4223 8.28646 5.71352 9.57768 7.30048 9.57768C8.88754 9.57768 10.1787 8.28646 10.1787 6.6995C10.1787 5.11244 8.88754 3.82132 7.30048 3.82132Z" fill="white"/>
<path d="M11.0518 2.52017C10.888 2.52017 10.7547 2.65348 10.7547 2.81724C10.7547 2.98101 10.888 3.11431 11.0518 3.11431C11.2156 3.11431 11.3489 2.98111 11.3489 2.81724C11.3489 2.65337 11.2156 2.52017 11.0518 2.52017Z" fill="white"/>
</g>
<defs>
<clipPath id="clip0">
<rect width="13.399" height="13.399" fill="white" transform="translate(0.600983)"/>
</clipPath>
</defs>
</svg>
