<svg width="14" height="14" viewBox="0 0 14 14" fill="none" xmlns="http://www.w3.org/2000/svg">
<g clip-path="url(#clip0)">
<path d="M13.328 9.78127C13.3118 9.7463 13.2966 9.7173 13.2826 9.69406C13.0501 9.27537 12.6059 8.76146 11.9501 8.15218L11.9363 8.13823L11.9293 8.13138L11.9223 8.12437H11.9153C11.6176 7.84066 11.4292 7.6499 11.3503 7.55223C11.2058 7.36618 11.1735 7.17787 11.2524 6.98705C11.3082 6.84289 11.5176 6.53843 11.8803 6.07327C12.0711 5.82674 12.2221 5.62916 12.3337 5.48031C13.1384 4.41055 13.4872 3.72696 13.3802 3.42927L13.3386 3.35971C13.3107 3.31783 13.2386 3.27951 13.1225 3.24457C13.0061 3.2097 12.8573 3.20394 12.6759 3.22717L10.6667 3.24105C10.6342 3.22952 10.5877 3.23059 10.5272 3.24457C10.4667 3.25855 10.4364 3.26556 10.4364 3.26556L10.4015 3.28303L10.3737 3.30402C10.3505 3.3179 10.3249 3.34231 10.2969 3.3772C10.2692 3.41197 10.2459 3.45278 10.2274 3.49928C10.0086 4.06204 9.75992 4.58526 9.4808 5.06892C9.3087 5.35733 9.15066 5.60727 9.00632 5.8189C8.86218 6.03046 8.74125 6.18633 8.64366 6.28624C8.54592 6.38625 8.45771 6.46637 8.3785 6.5269C8.2994 6.58745 8.23902 6.61303 8.19721 6.60367C8.15531 6.59431 8.11585 6.58503 8.07849 6.57574C8.01342 6.53386 7.96108 6.4769 7.92161 6.40482C7.88198 6.33274 7.8553 6.24201 7.84135 6.13272C7.82747 6.02335 7.81926 5.92927 7.81691 5.85018C7.81474 5.77118 7.81574 5.65944 7.82045 5.51527C7.82529 5.37103 7.82747 5.27344 7.82747 5.22228C7.82747 5.04551 7.83091 4.85368 7.83783 4.64671C7.84486 4.43975 7.85056 4.27577 7.85532 4.15496C7.86006 4.03404 7.86226 3.90609 7.86226 3.77121C7.86226 3.63633 7.85405 3.53056 7.83783 3.45378C7.8218 3.37711 7.79719 3.30268 7.76477 3.23052C7.73215 3.15844 7.6844 3.10268 7.62175 3.06309C7.55898 3.02356 7.48093 2.99218 7.38806 2.96887C7.14153 2.91309 6.82762 2.88291 6.44617 2.87822C5.58115 2.86894 5.02533 2.92479 4.77884 3.04572C4.68117 3.09681 4.59279 3.16662 4.51377 3.25493C4.43003 3.35729 4.41835 3.41315 4.4788 3.42233C4.75789 3.46414 4.95547 3.56415 5.07176 3.72227L5.11367 3.80606C5.14626 3.86651 5.17881 3.97353 5.21138 4.12699C5.2439 4.28044 5.26489 4.45018 5.27413 4.63613C5.29734 4.9757 5.29734 5.26638 5.27413 5.50819C5.25084 5.75009 5.22885 5.93841 5.20786 6.07329C5.18687 6.20817 5.1555 6.31747 5.11367 6.40116C5.07176 6.48487 5.04388 6.53604 5.0299 6.55461C5.01595 6.57318 5.00432 6.58488 4.99508 6.58948C4.93463 6.61264 4.87176 6.62444 4.80669 6.62444C4.74152 6.62444 4.6625 6.59185 4.5695 6.5267C4.47653 6.46156 4.38003 6.37208 4.28002 6.25812C4.18001 6.14413 4.06722 5.98484 3.9416 5.78022C3.81608 5.5756 3.68584 5.33377 3.55096 5.05473L3.43937 4.85236C3.36961 4.72217 3.27431 4.5326 3.15338 4.28383C3.03238 4.03496 2.92543 3.79423 2.83246 3.56169C2.79529 3.46402 2.73946 3.38967 2.66505 3.3385L2.63014 3.31751C2.60692 3.29894 2.56966 3.27922 2.51854 3.25821C2.46735 3.23722 2.41394 3.22216 2.35808 3.2129L0.44657 3.22678C0.251239 3.22678 0.118704 3.27103 0.0489185 3.35941L0.0209895 3.40122C0.00703722 3.42451 0 3.4617 0 3.51289C0 3.56406 0.0139523 3.62685 0.0418812 3.70121C0.320927 4.35704 0.624382 4.98953 0.952248 5.59879C1.28011 6.20805 1.56502 6.69882 1.80681 7.07067C2.04864 7.44279 2.29514 7.79399 2.5463 8.1241C2.79747 8.45434 2.96372 8.66597 3.04506 8.75894C3.12651 8.85209 3.19048 8.92173 3.23698 8.96823L3.41142 9.13563C3.52303 9.24727 3.68694 9.38098 3.90321 9.53675C4.11954 9.69262 4.35902 9.84607 4.62179 9.99735C4.88461 10.1484 5.19037 10.2716 5.53922 10.3669C5.88803 10.4624 6.22753 10.5007 6.55776 10.4822H7.36005C7.52277 10.4681 7.64604 10.417 7.72983 10.3287L7.75758 10.2937C7.77625 10.2659 7.79372 10.2228 7.80985 10.1648C7.82617 10.1066 7.83428 10.0426 7.83428 9.97294C7.82952 9.77299 7.84474 9.59278 7.87954 9.43234C7.91431 9.27195 7.95394 9.15102 7.99827 9.06958C8.04257 8.98821 8.09256 8.91955 8.1482 8.86389C8.20396 8.80811 8.24369 8.77431 8.267 8.76268C8.29016 8.75098 8.30866 8.74304 8.32261 8.73827C8.43423 8.70108 8.56559 8.7371 8.71689 8.84649C8.86807 8.95579 9.00987 9.09074 9.1425 9.25113C9.27506 9.41167 9.43432 9.59178 9.62032 9.79173C9.80644 9.99175 9.96918 10.1404 10.1087 10.2383L10.2481 10.322C10.3413 10.3778 10.4622 10.429 10.6111 10.4755C10.7596 10.522 10.8898 10.5336 11.0016 10.5104L12.7875 10.4825C12.9641 10.4825 13.1016 10.4533 13.1991 10.3952C13.2968 10.3371 13.3548 10.273 13.3735 10.2034C13.3922 10.1336 13.3932 10.0545 13.377 9.96607C13.3605 9.87784 13.3442 9.81614 13.328 9.78127Z" fill="white"/>
</g>
<defs>
<clipPath id="clip0">
<rect width="13.399" height="13.399" fill="white"/>
</clipPath>
</defs>
</svg>
